<svg xmlns="http://www.w3.org/2000/svg" viewBox="0 0 512.002 512.002" width="512" height="512"><path d="M394.667 42.667h-128c-11.782 0-21.333 9.551-21.333 21.333v128c0 11.782 9.551 21.333 21.333 21.333h128c11.782 0 21.333-9.551 21.333-21.333V64c0-11.782-9.551-21.333-21.333-21.333zM290.347 192c7.707-22.268 32.007-34.072 54.275-26.365A42.668 42.668 0 0 1 370.987 192h-80.64zm18.986-74.667c0-11.782 9.551-21.333 21.333-21.333C342.449 96 352 105.551 352 117.333c0 11.782-9.551 21.333-21.333 21.333-11.782.001-21.334-9.55-21.334-21.333zM394.667 192h-1.387a64.001 64.001 0 0 0-33.493-43.627c17.25-16.053 18.221-43.051 2.167-60.301-16.053-17.25-43.051-18.221-60.301-2.167-17.25 16.053-18.221 43.051-2.167 60.301a42.584 42.584 0 0 0 2.167 2.167 64.001 64.001 0 0 0-33.6 43.627h-1.387V64h128v128z" fill="#dcc7a9"/><path d="M432.429.002a15.555 15.555 0 0 0-.215-.002h-282.88a10.67 10.67 0 0 0-7.573 3.093L56.427 88.427A10.662 10.662 0 0 0 53.334 96v389.547c.058 14.586 11.868 26.395 26.453 26.453h352c14.668.177 26.701-11.57 26.878-26.238l.002-.215V26.88c.177-14.667-11.57-26.701-26.238-26.878zm4.905 485.545a5.12 5.12 0 0 1-5.12 5.12h-352a5.12 5.12 0 0 1-5.547-5.12V100.374l64-64v44.16a4.908 4.908 0 0 1-4.8 4.8h-27.2v21.333h32c12.352-2.351 21.299-13.133 21.333-25.707V21.333h272.213a5.12 5.12 0 0 1 5.12 5.12v459.094z" fill="#dcc7a9"/><path fill="#dcc7a9" d="M192 256H362.66700000000003V277.33299999999997H192z"/><path fill="#dcc7a9" d="M149.333 309.333H362.666V330.66600000000005H149.333z"/><path fill="#dcc7a9" d="M149.333 362.667H362.666V384H149.333z"/><path fill="#dcc7a9" d="M149.333 416H320V437.33299999999997H149.333z"/><path fill="#dcc7a9" d="M341.334 416H362.66700000000003V437.33299999999997H341.334z"/></svg>