<svg xmlns="http://www.w3.org/2000/svg" viewBox="0 0 818.81 640.63"><defs><style>.cls-1{fill:none;stroke:#fff;stroke-miterlimit:10;stroke-width:15px;}</style></defs><title>Fichier 7</title><g id="Calque_2" data-name="Calque 2"><g id="Calque_2-2" data-name="Calque 2"><path class="cls-1" d="M811.32,442.83C801.8,202.83,595.08,7.93,349.59,7.5,153.2,7.16.16,162.52,7.77,354.52c6.09,153.59,138.39,278.33,295.5,278.61C429,633.35,526.91,533.92,522,411c-3.9-98.3-88.57-178.14-189.12-178.31-80.44-.14-143.13,63.49-140,142.13,2.49,62.92,56.68,114,121,114.12,51.48.09,91.6-40.63,89.6-91-1.59-40.27-36.28-73-77.46-73-32.95-.06-58.63,26-57.35,58.22"/></g></g></svg>