<svg xmlns="http://www.w3.org/2000/svg" viewBox="0 0 805.58 681.09"><defs><style>.cls-1{fill:none;stroke:#fff;stroke-miterlimit:10;stroke-width:15px}</style></defs><title>Fichier 8</title><g id="Calque_2" data-name="Calque 2"><path class="cls-1" d="M799.24 465.79C671 668.87 394.53 734.31 181.71 611.93 11.46 514-43.4 303 59.19 140.5c82.07-130 259-171.86 395.22-93.54 109 62.66 144.07 197.74 78.41 301.72-52.52 83.19-165.77 110-252.94 59.86-69.73-40.09-92.2-126.55-50.18-193.1 33.61-53.23 106.09-70.39 161.88-38.31 44.63 25.67 59 81 32.12 123.59-21.52 34.07-67.9 45-103.61 24.52-28.56-16.43-37.76-51.84-20.55-79.1" id="Calque_2-2" data-name="Calque 2"/></g></svg>